<?xml version="1.0" encoding="UTF-8" standalone="no"?>
<!-- Created with Inkscape (http://www.inkscape.org/) -->

<svg
   width="133.52344mm"
   height="36.473885mm"
   viewBox="0 0 133.52344 36.473885"
   version="1.1"
   id="svg5"
   sodipodi:docname="rg_flow_pms.svg"
   inkscape:version="1.1.1 (3bf5ae0d25, 2021-09-20)"
   xmlns:inkscape="http://www.inkscape.org/namespaces/inkscape"
   xmlns:sodipodi="http://sodipodi.sourceforge.net/DTD/sodipodi-0.dtd"
   xmlns:xlink="http://www.w3.org/1999/xlink"
   xmlns="http://www.w3.org/2000/svg"
   xmlns:svg="http://www.w3.org/2000/svg">
  <sodipodi:namedview
     id="namedview7"
     pagecolor="#505050"
     bordercolor="#eeeeee"
     borderopacity="1"
     inkscape:pageshadow="0"
     inkscape:pageopacity="0"
     inkscape:pagecheckerboard="0"
     inkscape:document-units="mm"
     showgrid="false"
     inkscape:snap-intersection-paths="true"
     inkscape:snap-smooth-nodes="true"
     inkscape:snap-midpoints="true"
     inkscape:snap-bbox="true"
     inkscape:snap-object-midpoints="true"
     inkscape:snap-center="true"
     inkscape:snap-text-baseline="true"
     inkscape:zoom="0.74029882"
     inkscape:cx="319.46559"
     inkscape:cy="49.979818"
     inkscape:window-width="1024"
     inkscape:window-height="742"
     inkscape:window-x="0"
     inkscape:window-y="26"
     inkscape:window-maximized="1"
     inkscape:current-layer="layer1" />
  <defs
     id="defs2">
    <marker
       style="overflow:visible"
       id="TriangleOutL"
       refX="0"
       refY="0"
       orient="auto"
       inkscape:stockid="TriangleOutL"
       inkscape:isstock="true">
      <path
         transform="scale(0.8)"
         style="fill:context-stroke;fill-rule:evenodd;stroke:context-stroke;stroke-width:1pt"
         d="M 5.77,0 -2.88,5 V -5 Z"
         id="path1762" />
    </marker>
    <g
       id="g1205">
      <symbol
         overflow="visible"
         id="symbol2664">
        <path
           style="stroke:none"
           d=""
           id="path6886" />
      </symbol>
      <symbol
         overflow="visible"
         id="symbol276">
        <path
           style="stroke:none"
           d="M 5.390625,-6.078125 C 5.46875,-6.40625 5.5,-6.5 6.046875,-6.5 c 0.15625,0 0.265625,0 0.265625,-0.1875 0,-0.09375 -0.0625,-0.125 -0.140625,-0.125 -0.25,0 -0.859375,0.03125 -1.109375,0.03125 -0.328125,0 -1.140625,-0.03125 -1.46875,-0.03125 -0.078125,0 -0.203125,0 -0.203125,0.203125 C 3.390625,-6.5 3.46875,-6.5 3.734375,-6.5 c 0.21875,0 0.328125,0 0.578125,0.015625 0.234375,0.03125 0.296875,0.0625 0.296875,0.203125 0,0.0625 -0.015625,0.125 -0.03125,0.203125 L 3.421875,-1.5 C 3.1875,-0.53125 2.515625,0 2,0 1.734375,0 1.203125,-0.09375 1.046875,-0.625 c 0.03125,0.015625 0.09375,0.015625 0.125,0.015625 0.390625,0 0.640625,-0.34375 0.640625,-0.640625 0,-0.3125 -0.265625,-0.421875 -0.4375,-0.421875 -0.171875,0 -0.671875,0.125 -0.671875,0.796875 0,0.625 0.53125,1.09375 1.328125,1.09375 0.90625,0 1.953125,-0.65625 2.203125,-1.640625 z m 0,0"
           id="path776" />
      </symbol>
      <symbol
         overflow="visible"
         id="symbol4594">
        <path
           style="stroke:none"
           d=""
           id="path1848" />
      </symbol>
      <symbol
         overflow="visible"
         id="symbol1078">
        <path
           style="stroke:none"
           d="m 2.25,-1.734375 c 0.578125,-0.25 0.828125,-0.34375 1,-0.4375 0.140625,-0.046875 0.203125,-0.078125 0.203125,-0.21875 0,-0.109375 -0.09375,-0.21875 -0.21875,-0.21875 -0.046875,0 -0.0625,0 -0.140625,0.0625 L 2.140625,-1.90625 2.25,-2.9375 c 0.015625,-0.125 0,-0.296875 -0.21875,-0.296875 -0.078125,0 -0.21875,0.046875 -0.21875,0.203125 0,0.0625 0.03125,0.265625 0.046875,0.34375 0.015625,0.109375 0.0625,0.625 0.078125,0.78125 L 0.984375,-2.546875 c -0.0625,-0.03125 -0.078125,-0.0625 -0.140625,-0.0625 -0.140625,0 -0.21875,0.109375 -0.21875,0.21875 0,0.140625 0.078125,0.1875 0.140625,0.203125 L 1.8125,-1.734375 c -0.5625,0.25 -0.828125,0.34375 -1,0.421875 -0.125,0.0625 -0.1875,0.09375 -0.1875,0.21875 0,0.125 0.078125,0.21875 0.21875,0.21875 0.046875,0 0.0625,0 0.140625,-0.0625 l 0.953125,-0.625 -0.125,1.109375 c 0,0.15625 0.140625,0.21875 0.21875,0.21875 0.09375,0 0.21875,-0.0625 0.21875,-0.21875 0,-0.0625 -0.03125,-0.265625 -0.03125,-0.328125 -0.015625,-0.125 -0.0625,-0.625 -0.078125,-0.78125 L 2.96875,-1.015625 C 3.15625,-0.875 3.171875,-0.875 3.234375,-0.875 c 0.125,0 0.21875,-0.09375 0.21875,-0.21875 0,-0.140625 -0.09375,-0.171875 -0.15625,-0.203125 z m 0,0"
           id="path4144" />
      </symbol>
      <symbol
         overflow="visible"
         id="symbol5346">
        <path
           style="stroke:none"
           d=""
           id="path3088" />
      </symbol>
      <symbol
         overflow="visible"
         id="symbol1149">
        <path
           style="stroke:none"
           d="m 2.328125,-4.4375 c 0,-0.1875 0,-0.1875 -0.203125,-0.1875 -0.453125,0.4375 -1.078125,0.4375 -1.359375,0.4375 v 0.25 c 0.15625,0 0.625,0 1,-0.1875 v 3.546875 c 0,0.234375 0,0.328125 -0.6875,0.328125 H 0.8125 V 0 c 0.125,0 0.984375,-0.03125 1.234375,-0.03125 0.21875,0 1.09375,0.03125 1.25,0.03125 V -0.25 H 3.03125 c -0.703125,0 -0.703125,-0.09375 -0.703125,-0.328125 z m 0,0"
           id="path4433" />
      </symbol>
    </g>
    <g
       id="g6410">
      <symbol
         overflow="visible"
         id="symbol1877">
        <path
           style="stroke:none"
           d=""
           id="path5938" />
      </symbol>
      <symbol
         overflow="visible"
         id="symbol3501">
        <path
           style="stroke:none"
           d="M 5.390625,-6.078125 C 5.46875,-6.40625 5.5,-6.5 6.046875,-6.5 c 0.15625,0 0.265625,0 0.265625,-0.1875 0,-0.09375 -0.0625,-0.125 -0.140625,-0.125 -0.25,0 -0.859375,0.03125 -1.109375,0.03125 -0.328125,0 -1.140625,-0.03125 -1.46875,-0.03125 -0.078125,0 -0.203125,0 -0.203125,0.203125 C 3.390625,-6.5 3.46875,-6.5 3.734375,-6.5 c 0.21875,0 0.328125,0 0.578125,0.015625 0.234375,0.03125 0.296875,0.0625 0.296875,0.203125 0,0.0625 -0.015625,0.125 -0.03125,0.203125 L 3.421875,-1.5 C 3.1875,-0.53125 2.515625,0 2,0 1.734375,0 1.203125,-0.09375 1.046875,-0.625 c 0.03125,0.015625 0.09375,0.015625 0.125,0.015625 0.390625,0 0.640625,-0.34375 0.640625,-0.640625 0,-0.3125 -0.265625,-0.421875 -0.4375,-0.421875 -0.171875,0 -0.671875,0.125 -0.671875,0.796875 0,0.625 0.53125,1.09375 1.328125,1.09375 0.90625,0 1.953125,-0.65625 2.203125,-1.640625 z m 0,0"
           id="path6451" />
      </symbol>
      <symbol
         overflow="visible"
         id="symbol7282">
        <path
           style="stroke:none"
           d=""
           id="path969" />
      </symbol>
      <symbol
         overflow="visible"
         id="symbol4122">
        <path
           style="stroke:none"
           d="m 2.25,-1.734375 c 0.578125,-0.25 0.828125,-0.34375 1,-0.4375 0.140625,-0.046875 0.203125,-0.078125 0.203125,-0.21875 0,-0.109375 -0.09375,-0.21875 -0.21875,-0.21875 -0.046875,0 -0.0625,0 -0.140625,0.0625 L 2.140625,-1.90625 2.25,-2.9375 c 0.015625,-0.125 0,-0.296875 -0.21875,-0.296875 -0.078125,0 -0.21875,0.046875 -0.21875,0.203125 0,0.0625 0.03125,0.265625 0.046875,0.34375 0.015625,0.109375 0.0625,0.625 0.078125,0.78125 L 0.984375,-2.546875 c -0.0625,-0.03125 -0.078125,-0.0625 -0.140625,-0.0625 -0.140625,0 -0.21875,0.109375 -0.21875,0.21875 0,0.140625 0.078125,0.1875 0.140625,0.203125 L 1.8125,-1.734375 c -0.5625,0.25 -0.828125,0.34375 -1,0.421875 -0.125,0.0625 -0.1875,0.09375 -0.1875,0.21875 0,0.125 0.078125,0.21875 0.21875,0.21875 0.046875,0 0.0625,0 0.140625,-0.0625 l 0.953125,-0.625 -0.125,1.109375 c 0,0.15625 0.140625,0.21875 0.21875,0.21875 0.09375,0 0.21875,-0.0625 0.21875,-0.21875 0,-0.0625 -0.03125,-0.265625 -0.03125,-0.328125 -0.015625,-0.125 -0.0625,-0.625 -0.078125,-0.78125 L 2.96875,-1.015625 C 3.15625,-0.875 3.171875,-0.875 3.234375,-0.875 c 0.125,0 0.21875,-0.09375 0.21875,-0.21875 0,-0.140625 -0.09375,-0.171875 -0.15625,-0.203125 z m 0,0"
           id="path6615" />
      </symbol>
      <symbol
         overflow="visible"
         id="symbol7975">
        <path
           style="stroke:none"
           d=""
           id="path8600" />
      </symbol>
      <symbol
         overflow="visible"
         id="symbol6346">
        <path
           style="stroke:none"
           d="M 3.515625,-1.265625 H 3.28125 c -0.015625,0.15625 -0.09375,0.5625 -0.1875,0.625 C 3.046875,-0.59375 2.515625,-0.59375 2.40625,-0.59375 H 1.125 c 0.734375,-0.640625 0.984375,-0.84375 1.390625,-1.171875 0.515625,-0.40625 1,-0.84375 1,-1.5 0,-0.84375 -0.734375,-1.359375 -1.625,-1.359375 -0.859375,0 -1.453125,0.609375 -1.453125,1.25 0,0.34375 0.296875,0.390625 0.375,0.390625 0.15625,0 0.359375,-0.125 0.359375,-0.375 0,-0.125 -0.046875,-0.375 -0.40625,-0.375 C 0.984375,-4.21875 1.453125,-4.375 1.78125,-4.375 c 0.703125,0 1.0625,0.546875 1.0625,1.109375 0,0.609375 -0.4375,1.078125 -0.65625,1.328125 L 0.515625,-0.265625 C 0.4375,-0.203125 0.4375,-0.1875 0.4375,0 h 2.875 z m 0,0"
           id="path4966" />
      </symbol>
    </g>
    <g
       id="g2339">
      <symbol
         overflow="visible"
         id="symbol1101">
        <path
           style="stroke:none"
           d=""
           id="path3179" />
      </symbol>
      <symbol
         overflow="visible"
         id="symbol9301">
        <path
           style="stroke:none"
           d="M 5.0625,-2.703125 C 4.53125,-3.375 4.40625,-3.53125 4.09375,-3.78125 c -0.5625,-0.453125 -1.109375,-0.625 -1.625,-0.625 -1.15625,0 -1.921875,1.09375 -1.921875,2.265625 0,1.140625 0.734375,2.25 1.890625,2.25 1.140625,0 1.96875,-0.90625 2.453125,-1.703125 0.546875,0.671875 0.65625,0.828125 0.96875,1.078125 0.5625,0.453125 1.125,0.625 1.625,0.625 1.171875,0 1.921875,-1.09375 1.921875,-2.265625 0,-1.140625 -0.734375,-2.25 -1.875,-2.25 -1.15625,0 -1.984375,0.90625 -2.46875,1.703125 z m 0.265625,0.34375 c 0.40625,-0.71875 1.140625,-1.734375 2.265625,-1.734375 1.0625,0 1.59375,1.046875 1.59375,1.9375 0,0.984375 -0.671875,1.78125 -1.546875,1.78125 C 7.0625,-0.375 6.625,-0.78125 6.40625,-1 6.15625,-1.265625 5.9375,-1.578125 5.328125,-2.359375 Z m -0.6875,0.421875 c -0.40625,0.71875 -1.15625,1.734375 -2.28125,1.734375 -1.046875,0 -1.59375,-1.046875 -1.59375,-1.9375 0,-0.984375 0.671875,-1.78125 1.546875,-1.78125 0.578125,0 1.03125,0.40625 1.234375,0.625 0.25,0.265625 0.484375,0.578125 1.09375,1.359375 z m 0,0"
           id="path2878" />
      </symbol>
    </g>
    <marker
       style="overflow:visible"
       id="TriangleOutL-7"
       refX="0"
       refY="0"
       orient="auto"
       inkscape:stockid="TriangleOutL"
       inkscape:isstock="true">
      <path
         transform="scale(0.8)"
         style="fill:context-stroke;fill-rule:evenodd;stroke:context-stroke;stroke-width:1pt"
         d="M 5.77,0 -2.88,5 V -5 Z"
         id="path1762-5" />
    </marker>
    <marker
       style="overflow:visible"
       id="TriangleOutL-5"
       refX="0"
       refY="0"
       orient="auto"
       inkscape:stockid="TriangleOutL"
       inkscape:isstock="true">
      <path
         transform="scale(0.8)"
         style="fill:context-stroke;fill-rule:evenodd;stroke:context-stroke;stroke-width:1pt"
         d="M 5.77,0 -2.88,5 V -5 Z"
         id="path1762-6" />
    </marker>
    <marker
       style="overflow:visible"
       id="TriangleOutL-7-2"
       refX="0"
       refY="0"
       orient="auto"
       inkscape:stockid="TriangleOutL"
       inkscape:isstock="true">
      <path
         transform="scale(0.8)"
         style="fill:context-stroke;fill-rule:evenodd;stroke:context-stroke;stroke-width:1pt"
         d="M 5.77,0 -2.88,5 V -5 Z"
         id="path1762-5-9" />
    </marker>
    <g
       id="g9747">
      <symbol
         overflow="visible"
         id="symbol8388">
        <path
           style="stroke:none"
           d=""
           id="path7258" />
      </symbol>
      <symbol
         overflow="visible"
         id="symbol4907">
        <path
           style="stroke:none"
           d="m 2.46875,-2.515625 c 0.546875,-0.265625 0.890625,-0.59375 0.890625,-1.078125 0,-0.671875 -0.703125,-1.03125 -1.375,-1.03125 -0.765625,0 -1.390625,0.5 -1.390625,1.15625 0,0.328125 0.15625,0.5625 0.28125,0.703125 0.125,0.15625 0.171875,0.1875 0.578125,0.421875 C 1.0625,-2.171875 0.375,-1.796875 0.375,-1.0625 c 0,0.765625 0.796875,1.203125 1.59375,1.203125 0.890625,0 1.609375,-0.5625 1.609375,-1.3125 0,-0.46875 -0.265625,-0.859375 -0.671875,-1.09375 -0.09375,-0.0625 -0.328125,-0.1875 -0.4375,-0.25 z m -1.125,-0.65625 c -0.1875,-0.109375 -0.375,-0.296875 -0.375,-0.5625 0,-0.4375 0.5,-0.6875 1,-0.6875 0.546875,0 1.03125,0.34375 1.03125,0.828125 0,0.625 -0.734375,0.9375 -0.734375,0.9375 -0.015625,0 -0.03125,0 -0.078125,-0.03125 z m 0.328125,0.96875 0.96875,0.546875 c 0.171875,0.109375 0.515625,0.3125 0.515625,0.71875 0,0.53125 -0.578125,0.859375 -1.171875,0.859375 -0.640625,0 -1.1875,-0.421875 -1.1875,-0.984375 0,-0.515625 0.375,-0.921875 0.875,-1.140625 z m 0,0"
           id="path8010" />
      </symbol>
      <symbol
         overflow="visible"
         id="symbol6896">
        <path
           style="stroke:none"
           d=""
           id="path4474" />
      </symbol>
      <symbol
         overflow="visible"
         id="symbol339">
        <path
           style="stroke:none"
           d="M 3.984375,-2.796875 C 3.953125,-2.859375 3.9375,-2.875 3.9375,-2.890625 c 0,-0.015625 0.015625,-0.015625 0.171875,-0.125 l 0.703125,-0.5 c 0.921875,-0.640625 1.359375,-0.953125 1.84375,-1 0.078125,0 0.171875,0 0.171875,-0.140625 0,-0.0625 -0.046875,-0.09375 -0.09375,-0.09375 -0.15625,0 -0.328125,0.015625 -0.484375,0.015625 -0.1875,0 -0.65625,-0.03125 -0.84375,-0.03125 -0.046875,0 -0.140625,0 -0.140625,0.15625 0,0.015625 0,0.09375 0.09375,0.09375 0.09375,0.015625 0.1875,0.03125 0.1875,0.109375 0,0.125 -0.21875,0.28125 -0.3125,0.34375 L 2.328125,-2.015625 2.875,-4.21875 c 0.0625,-0.234375 0.078125,-0.296875 0.609375,-0.296875 0.125,0 0.21875,0 0.21875,-0.140625 0,-0.0625 -0.046875,-0.109375 -0.109375,-0.109375 -0.203125,0 -0.71875,0.03125 -0.921875,0.03125 -0.109375,0 -0.359375,0 -0.484375,0 C 2.0625,-4.75 1.890625,-4.765625 1.75,-4.765625 c -0.03125,0 -0.140625,0 -0.140625,0.15625 0,0.09375 0.078125,0.09375 0.234375,0.09375 0.109375,0 0.140625,0 0.265625,0.015625 0.140625,0.015625 0.15625,0.03125 0.15625,0.109375 0,0 0,0.046875 -0.03125,0.140625 l -0.9375,3.703125 C 1.25,-0.3125 1.234375,-0.25 0.6875,-0.25 c -0.125,0 -0.203125,0 -0.203125,0.15625 0,0 0,0.09375 0.109375,0.09375 0.203125,0 0.703125,-0.03125 0.90625,-0.03125 0.109375,0 0.359375,0 0.484375,0.015625 C 2.125,-0.015625 2.296875,0 2.421875,0 2.46875,0 2.578125,0 2.578125,-0.15625 2.578125,-0.25 2.484375,-0.25 2.34375,-0.25 c 0,0 -0.140625,0 -0.265625,-0.015625 C 1.921875,-0.28125 1.921875,-0.296875 1.921875,-0.375 1.921875,-0.421875 2,-0.6875 2.25,-1.703125 l 1.15625,-0.8125 1.015625,1.953125 c 0.046875,0.09375 0.046875,0.09375 0.046875,0.125 0,0.171875 -0.203125,0.1875 -0.328125,0.1875 -0.078125,0 -0.171875,0 -0.171875,0.15625 0,0 0,0.09375 0.109375,0.09375 C 4.28125,0 4.78125,-0.03125 4.96875,-0.03125 5.1875,-0.03125 5.46875,0 5.65625,0 5.75,0 5.796875,-0.046875 5.796875,-0.140625 5.796875,-0.25 5.703125,-0.25 5.640625,-0.25 c -0.125,0 -0.34375,-0.015625 -0.46875,-0.234375 z m 0,0"
           id="path5218" />
      </symbol>
      <symbol
         overflow="visible"
         id="symbol9356">
        <path
           style="stroke:none"
           d="M 0.375,1.125 C 0.34375,1.21875 0.34375,1.265625 0.34375,1.265625 c 0,0.15625 0.125,0.21875 0.234375,0.21875 0.265625,0 0.3125,-0.203125 0.359375,-0.421875 0.09375,-0.359375 0.296875,-1.15625 0.359375,-1.421875 0.0625,0.09375 0.296875,0.421875 0.765625,0.421875 0.90625,0 1.84375,-0.9375 1.84375,-1.953125 0,-0.75 -0.484375,-1.1875 -1.109375,-1.1875 -0.671875,0 -1.515625,0.609375 -1.765625,1.59375 z m 1.6875,-1.25 c -0.515625,0 -0.671875,-0.515625 -0.671875,-0.609375 0,-0.015625 0.046875,-0.171875 0.0625,-0.25 C 1.671875,-1.84375 1.703125,-2 1.90625,-2.3125 c 0.25,-0.359375 0.609375,-0.5625 0.875,-0.5625 0.296875,0 0.5625,0.203125 0.5625,0.703125 0,0.3125 -0.1875,1.09375 -0.390625,1.4375 C 2.625,-0.234375 2.28125,-0.125 2.0625,-0.125 Z m 0,0"
           id="path2911" />
      </symbol>
    </g>
    <marker
       style="overflow:visible"
       id="TriangleOutL-0"
       refX="0"
       refY="0"
       orient="auto"
       inkscape:stockid="TriangleOutL"
       inkscape:isstock="true">
      <path
         transform="scale(0.8)"
         style="fill:context-stroke;fill-rule:evenodd;stroke:context-stroke;stroke-width:1pt"
         d="M 5.77,0 -2.88,5 V -5 Z"
         id="path1762-7" />
    </marker>
    <marker
       style="overflow:visible"
       id="TriangleOutL-7-8"
       refX="0"
       refY="0"
       orient="auto"
       inkscape:stockid="TriangleOutL"
       inkscape:isstock="true">
      <path
         transform="scale(0.8)"
         style="fill:context-stroke;fill-rule:evenodd;stroke:context-stroke;stroke-width:1pt"
         d="M 5.77,0 -2.88,5 V -5 Z"
         id="path1762-5-6" />
    </marker>
    <g
       id="g1510">
      <symbol
         overflow="visible"
         id="symbol2479">
        <path
           style="stroke:none"
           d=""
           id="path2183" />
      </symbol>
      <symbol
         overflow="visible"
         id="symbol8053">
        <path
           style="stroke:none"
           d="m 4.578125,-3.1875 c 0,-0.796875 -0.046875,-1.59375 -0.390625,-2.328125 -0.453125,-0.96875 -1.28125,-1.125 -1.6875,-1.125 -0.609375,0 -1.328125,0.265625 -1.75,1.1875 -0.3125,0.6875 -0.359375,1.46875 -0.359375,2.265625 0,0.75 0.03125,1.640625 0.453125,2.40625 0.421875,0.796875 1.15625,1 1.640625,1 0.53125,0 1.296875,-0.203125 1.734375,-1.15625 0.3125,-0.6875 0.359375,-1.46875 0.359375,-2.25 z M 2.484375,0 C 2.09375,0 1.5,-0.25 1.328125,-1.203125 1.21875,-1.796875 1.21875,-2.71875 1.21875,-3.3125 c 0,-0.640625 0,-1.296875 0.078125,-1.828125 0.1875,-1.1875 0.9375,-1.28125 1.1875,-1.28125 0.328125,0 0.984375,0.1875 1.171875,1.171875 0.109375,0.5625 0.109375,1.3125 0.109375,1.9375 0,0.75 0,1.421875 -0.109375,2.0625 C 3.5,-0.296875 2.9375,0 2.484375,0 Z m 0,0"
           id="path8973" />
      </symbol>
    </g>
    <g
       id="g599">
      <symbol
         overflow="visible"
         id="symbol5219">
        <path
           style="stroke:none"
           d=""
           id="path3868" />
      </symbol>
      <symbol
         overflow="visible"
         id="symbol3367">
        <path
           style="stroke:none"
           d="M 5.0625,-2.703125 C 4.53125,-3.375 4.40625,-3.53125 4.09375,-3.78125 c -0.5625,-0.453125 -1.109375,-0.625 -1.625,-0.625 -1.15625,0 -1.921875,1.09375 -1.921875,2.265625 0,1.140625 0.734375,2.25 1.890625,2.25 1.140625,0 1.96875,-0.90625 2.453125,-1.703125 0.546875,0.671875 0.65625,0.828125 0.96875,1.078125 0.5625,0.453125 1.125,0.625 1.625,0.625 1.171875,0 1.921875,-1.09375 1.921875,-2.265625 0,-1.140625 -0.734375,-2.25 -1.875,-2.25 -1.15625,0 -1.984375,0.90625 -2.46875,1.703125 z m 0.265625,0.34375 c 0.40625,-0.71875 1.140625,-1.734375 2.265625,-1.734375 1.0625,0 1.59375,1.046875 1.59375,1.9375 0,0.984375 -0.671875,1.78125 -1.546875,1.78125 C 7.0625,-0.375 6.625,-0.78125 6.40625,-1 6.15625,-1.265625 5.9375,-1.578125 5.328125,-2.359375 Z m -0.6875,0.421875 c -0.40625,0.71875 -1.15625,1.734375 -2.28125,1.734375 -1.046875,0 -1.59375,-1.046875 -1.59375,-1.9375 0,-0.984375 0.671875,-1.78125 1.546875,-1.78125 0.578125,0 1.03125,0.40625 1.234375,0.625 0.25,0.265625 0.484375,0.578125 1.09375,1.359375 z m 0,0"
           id="path9086" />
      </symbol>
    </g>
  </defs>
  <g
     inkscape:label="Layer 1"
     inkscape:groupmode="layer"
     id="layer1"
     transform="translate(-20.502062,-135.27525)">
    <path
       style="fill:none;stroke:#000000;stroke-width:0.857676;stroke-linecap:butt;stroke-linejoin:miter;stroke-miterlimit:4;stroke-dasharray:none;stroke-opacity:1"
       d="m 22.595812,144.51567 c 127.000008,0 127.000008,0 127.000008,0"
       id="path857" />
    <path
       style="fill:none;stroke:#000000;stroke-width:1;stroke-linecap:butt;stroke-linejoin:miter;stroke-miterlimit:4;stroke-dasharray:2, 2;stroke-dashoffset:0;stroke-opacity:1"
       d="m 86.095816,135.27525 c 0,18.48083 0,18.48083 0,18.48083"
       id="path972" />
    <path
       style="fill:none;stroke:#000000;stroke-width:1;stroke-linecap:butt;stroke-linejoin:miter;stroke-miterlimit:4;stroke-dasharray:2, 2;stroke-dashoffset:0;stroke-opacity:1"
       d="m 22.595812,135.27526 c 0,18.48082 0,18.48082 0,18.48082"
       id="path972-4" />
    <path
       style="fill:none;stroke:#000000;stroke-width:1;stroke-linecap:butt;stroke-linejoin:miter;stroke-miterlimit:4;stroke-dasharray:2, 2;stroke-dashoffset:0;stroke-opacity:1"
       d="m 149.59582,135.27525 c 0,18.48083 0,18.48083 0,18.48083"
       id="path972-3" />
    <path
       style="fill:none;stroke:#ff0000;stroke-width:0.5;stroke-linecap:butt;stroke-linejoin:miter;stroke-miterlimit:4;stroke-dasharray:none;stroke-opacity:1;marker-end:url(#TriangleOutL)"
       d="m 56.382143,144.51567 c 3.255338,0 3.255338,0 3.255338,0"
       id="path1538" />
    <path
       style="fill:none;stroke:#ff0000;stroke-width:0.5;stroke-linecap:butt;stroke-linejoin:miter;stroke-miterlimit:4;stroke-dasharray:none;stroke-opacity:1;marker-end:url(#TriangleOutL-7)"
       d="m 72.257144,144.51567 c 3.255338,0 3.255338,0 3.255338,0"
       id="path1538-3" />
    <path
       style="fill:none;stroke:#ff0000;stroke-width:0.5;stroke-linecap:butt;stroke-linejoin:miter;stroke-miterlimit:4;stroke-dasharray:none;stroke-opacity:1;marker-end:url(#TriangleOutL-0)"
       d="m 115.8095,144.51567 c -3.25533,0 -3.25533,0 -3.25533,0"
       id="path1538-8" />
    <path
       style="fill:none;stroke:#ff0000;stroke-width:0.5;stroke-linecap:butt;stroke-linejoin:miter;stroke-miterlimit:4;stroke-dasharray:none;stroke-opacity:1;marker-end:url(#TriangleOutL-7-8)"
       d="m 99.93449,144.51567 c -3.25534,0 -3.25534,0 -3.25534,0"
       id="path1538-3-8" />
    <g
       inkscape:label=""
       transform="translate(-12.683481,84.866758)"
       id="g4146">
      <g
         id="g8813">
        <g
           style="fill:#000000;fill-opacity:1"
           id="g6735">
          <use
             xlink:href="#symbol4907"
             x="96.792999"
             y="78.040001"
             id="use3340"
             width="100%"
             height="100%" />
        </g>
        <path
           style="fill:none;stroke:#000000;stroke-width:0.398;stroke-linecap:butt;stroke-linejoin:miter;stroke-miterlimit:10;stroke-opacity:1"
           d="M 9.375e-5,-6.5625e-4 H 11.3165"
           transform="matrix(1,0,0,-1,93.121,79.472)"
           id="path3333" />
        <g
           style="fill:#000000;fill-opacity:1"
           id="g3737">
          <use
             xlink:href="#symbol339"
             x="93.121002"
             y="85.398003"
             id="use8354"
             width="100%"
             height="100%" />
        </g>
        <g
           style="fill:#000000;fill-opacity:1"
           id="g9490">
          <use
             xlink:href="#symbol9356"
             x="100.30331"
             y="85.398003"
             id="use2934"
             width="100%"
             height="100%" />
        </g>
      </g>
    </g>
    <g
       inkscape:label=""
       transform="translate(-71.813566,85.587354)"
       id="g4907">
      <g
         id="g7146">
        <g
           style="fill:#000000;fill-opacity:1"
           id="g4006">
          <use
             xlink:href="#symbol8053"
             x="91.925003"
             y="81.962997"
             id="use3136"
             width="100%"
             height="100%" />
        </g>
      </g>
    </g>
    <g
       inkscape:label=""
       transform="translate(52.694254,84.524854)"
       id="g5130">
      <g
         id="g3587">
        <g
           style="fill:#000000;fill-opacity:1"
           id="g5111">
          <use
             xlink:href="#symbol3367"
             x="91.925003"
             y="81.962997"
             id="use3288"
             width="100%"
             height="100%" />
        </g>
      </g>
    </g>
  </g>
</svg>
