<?xml version="1.0" encoding="UTF-8" standalone="no"?>
<!-- Created with Inkscape (http://www.inkscape.org/) -->

<svg
   width="175.76364mm"
   height="33.561287mm"
   viewBox="0 0 175.76364 33.561287"
   version="1.1"
   id="svg10865"
   sodipodi:docname="rg_flow.svg"
   inkscape:version="1.1.1 (3bf5ae0d25, 2021-09-20, custom)"
   xmlns:inkscape="http://www.inkscape.org/namespaces/inkscape"
   xmlns:sodipodi="http://sodipodi.sourceforge.net/DTD/sodipodi-0.dtd"
   xmlns:xlink="http://www.w3.org/1999/xlink"
   xmlns="http://www.w3.org/2000/svg"
   xmlns:svg="http://www.w3.org/2000/svg">
  <sodipodi:namedview
     id="namedview10867"
     pagecolor="#505050"
     bordercolor="#eeeeee"
     borderopacity="1"
     inkscape:pageshadow="0"
     inkscape:pageopacity="0"
     inkscape:pagecheckerboard="0"
     inkscape:document-units="mm"
     showgrid="false"
     inkscape:snap-bbox="true"
     inkscape:object-paths="true"
     inkscape:snap-intersection-paths="true"
     inkscape:snap-object-midpoints="true"
     inkscape:snap-center="true"
     inkscape:zoom="0.74029882"
     inkscape:cx="326.89502"
     inkscape:cy="204.64709"
     inkscape:window-width="1916"
     inkscape:window-height="1051"
     inkscape:window-x="0"
     inkscape:window-y="25"
     inkscape:window-maximized="1"
     inkscape:current-layer="layer1" />
  <defs
     id="defs10862">
    <inkscape:path-effect
       effect="spiro"
       id="path-effect12888"
       is_visible="true"
       lpeversion="1" />
    <inkscape:path-effect
       effect="spiro"
       id="path-effect12884"
       is_visible="true"
       lpeversion="1" />
    <inkscape:path-effect
       effect="spiro"
       id="path-effect12819"
       is_visible="true"
       lpeversion="1" />
    <inkscape:path-effect
       effect="spiro"
       id="path-effect12815"
       is_visible="true"
       lpeversion="1" />
    <inkscape:path-effect
       effect="spiro"
       id="path-effect12750"
       is_visible="true"
       lpeversion="1" />
    <inkscape:path-effect
       effect="spiro"
       id="path-effect12746"
       is_visible="true"
       lpeversion="1" />
    <inkscape:path-effect
       effect="spiro"
       id="path-effect12686"
       is_visible="true"
       lpeversion="1" />
    <marker
       style="overflow:visible"
       id="TriangleOutL"
       refX="0"
       refY="0"
       orient="auto"
       inkscape:stockid="TriangleOutL"
       inkscape:isstock="true">
      <path
         transform="scale(0.8)"
         style="fill:context-stroke;fill-rule:evenodd;stroke:context-stroke;stroke-width:1pt"
         d="M 5.77,0 -2.88,5 V -5 Z"
         id="path12524" />
    </marker>
    <inkscape:path-effect
       effect="spiro"
       id="path-effect12300"
       is_visible="true"
       lpeversion="1" />
    <inkscape:path-effect
       effect="spiro"
       id="path-effect12262"
       is_visible="true"
       lpeversion="1" />
    <inkscape:path-effect
       effect="spiro"
       id="path-effect12233"
       is_visible="true"
       lpeversion="1" />
    <inkscape:path-effect
       effect="spiro"
       id="path-effect12204"
       is_visible="true"
       lpeversion="1" />
    <inkscape:path-effect
       effect="spiro"
       id="path-effect12096"
       is_visible="true"
       lpeversion="1" />
    <rect
       x="166.77856"
       y="210.90364"
       width="70.734154"
       height="55.094109"
       id="rect11793" />
    <inkscape:path-effect
       effect="spiro"
       id="path-effect10961"
       is_visible="true"
       lpeversion="1" />
    <marker
       style="overflow:visible"
       id="TriangleOutL-5"
       refX="0"
       refY="0"
       orient="auto"
       inkscape:stockid="TriangleOutL"
       inkscape:isstock="true">
      <path
         transform="scale(0.8)"
         style="fill:context-stroke;fill-rule:evenodd;stroke:context-stroke;stroke-width:1pt"
         d="M 5.77,0 -2.88,5 V -5 Z"
         id="path12524-9" />
    </marker>
    <marker
       style="overflow:visible"
       id="TriangleOutL-2"
       refX="0"
       refY="0"
       orient="auto"
       inkscape:stockid="TriangleOutL"
       inkscape:isstock="true">
      <path
         transform="scale(0.8)"
         style="fill:context-stroke;fill-rule:evenodd;stroke:context-stroke;stroke-width:1pt"
         d="M 5.77,0 -2.88,5 V -5 Z"
         id="path12524-1" />
    </marker>
    <marker
       style="overflow:visible"
       id="TriangleOutL-5-7"
       refX="0"
       refY="0"
       orient="auto"
       inkscape:stockid="TriangleOutL"
       inkscape:isstock="true">
      <path
         transform="scale(0.8)"
         style="fill:context-stroke;fill-rule:evenodd;stroke:context-stroke;stroke-width:1pt"
         d="M 5.77,0 -2.88,5 V -5 Z"
         id="path12524-9-8" />
    </marker>
    <marker
       style="overflow:visible"
       id="TriangleOutL-5-7-4"
       refX="0"
       refY="0"
       orient="auto"
       inkscape:stockid="TriangleOutL"
       inkscape:isstock="true">
      <path
         transform="scale(0.8)"
         style="fill:context-stroke;fill-rule:evenodd;stroke:context-stroke;stroke-width:1pt"
         d="M 5.77,0 -2.88,5 V -5 Z"
         id="path12524-9-8-1" />
    </marker>
    <marker
       style="overflow:visible"
       id="TriangleOutL-2-8"
       refX="0"
       refY="0"
       orient="auto"
       inkscape:stockid="TriangleOutL"
       inkscape:isstock="true">
      <path
         transform="scale(0.8)"
         style="fill:context-stroke;fill-rule:evenodd;stroke:context-stroke;stroke-width:1pt"
         d="M 5.77,0 -2.88,5 V -5 Z"
         id="path12524-1-5" />
    </marker>
    <marker
       style="overflow:visible"
       id="TriangleOutL-2-8-5"
       refX="0"
       refY="0"
       orient="auto"
       inkscape:stockid="TriangleOutL"
       inkscape:isstock="true">
      <path
         transform="scale(0.8)"
         style="fill:context-stroke;fill-rule:evenodd;stroke:context-stroke;stroke-width:1pt"
         d="M 5.77,0 -2.88,5 V -5 Z"
         id="path12524-1-5-3" />
    </marker>
    <marker
       style="overflow:visible"
       id="TriangleOutL-5-7-4-8"
       refX="0"
       refY="0"
       orient="auto"
       inkscape:stockid="TriangleOutL"
       inkscape:isstock="true">
      <path
         transform="scale(0.8)"
         style="fill:context-stroke;fill-rule:evenodd;stroke:context-stroke;stroke-width:1pt"
         d="M 5.77,0 -2.88,5 V -5 Z"
         id="path12524-9-8-1-8" />
    </marker>
    <g
       id="g2191">
      <symbol
         overflow="visible"
         id="symbol5325">
        <path
           style="stroke:none"
           d=""
           id="path7843" />
      </symbol>
      <symbol
         overflow="visible"
         id="symbol5024">
        <path
           style="stroke:none"
           d="M 5.390625,-6.078125 C 5.46875,-6.40625 5.5,-6.5 6.046875,-6.5 c 0.15625,0 0.265625,0 0.265625,-0.1875 0,-0.09375 -0.0625,-0.125 -0.140625,-0.125 -0.25,0 -0.859375,0.03125 -1.109375,0.03125 -0.328125,0 -1.140625,-0.03125 -1.46875,-0.03125 -0.078125,0 -0.203125,0 -0.203125,0.203125 C 3.390625,-6.5 3.46875,-6.5 3.734375,-6.5 c 0.21875,0 0.328125,0 0.578125,0.015625 0.234375,0.03125 0.296875,0.0625 0.296875,0.203125 0,0.0625 -0.015625,0.125 -0.03125,0.203125 L 3.421875,-1.5 C 3.1875,-0.53125 2.515625,0 2,0 1.734375,0 1.203125,-0.09375 1.046875,-0.625 c 0.03125,0.015625 0.09375,0.015625 0.125,0.015625 0.390625,0 0.640625,-0.34375 0.640625,-0.640625 0,-0.3125 -0.265625,-0.421875 -0.4375,-0.421875 -0.171875,0 -0.671875,0.125 -0.671875,0.796875 0,0.625 0.53125,1.09375 1.328125,1.09375 0.90625,0 1.953125,-0.65625 2.203125,-1.640625 z m 0,0"
           id="path5649" />
      </symbol>
      <symbol
         overflow="visible"
         id="symbol7151">
        <path
           style="stroke:none"
           d=""
           id="path6617" />
      </symbol>
      <symbol
         overflow="visible"
         id="symbol590">
        <path
           style="stroke:none"
           d="m 2.25,-1.734375 c 0.578125,-0.25 0.828125,-0.34375 1,-0.4375 0.140625,-0.046875 0.203125,-0.078125 0.203125,-0.21875 0,-0.109375 -0.09375,-0.21875 -0.21875,-0.21875 -0.046875,0 -0.0625,0 -0.140625,0.0625 L 2.140625,-1.90625 2.25,-2.9375 c 0.015625,-0.125 0,-0.296875 -0.21875,-0.296875 -0.078125,0 -0.21875,0.046875 -0.21875,0.203125 0,0.0625 0.03125,0.265625 0.046875,0.34375 0.015625,0.109375 0.0625,0.625 0.078125,0.78125 L 0.984375,-2.546875 c -0.0625,-0.03125 -0.078125,-0.0625 -0.140625,-0.0625 -0.140625,0 -0.21875,0.109375 -0.21875,0.21875 0,0.140625 0.078125,0.1875 0.140625,0.203125 L 1.8125,-1.734375 c -0.5625,0.25 -0.828125,0.34375 -1,0.421875 -0.125,0.0625 -0.1875,0.09375 -0.1875,0.21875 0,0.125 0.078125,0.21875 0.21875,0.21875 0.046875,0 0.0625,0 0.140625,-0.0625 l 0.953125,-0.625 -0.125,1.109375 c 0,0.15625 0.140625,0.21875 0.21875,0.21875 0.09375,0 0.21875,-0.0625 0.21875,-0.21875 0,-0.0625 -0.03125,-0.265625 -0.03125,-0.328125 -0.015625,-0.125 -0.0625,-0.625 -0.078125,-0.78125 L 2.96875,-1.015625 C 3.15625,-0.875 3.171875,-0.875 3.234375,-0.875 c 0.125,0 0.21875,-0.09375 0.21875,-0.21875 0,-0.140625 -0.09375,-0.171875 -0.15625,-0.203125 z m 0,0"
           id="path3849" />
      </symbol>
      <symbol
         overflow="visible"
         id="symbol8353">
        <path
           style="stroke:none"
           d=""
           id="path6273" />
      </symbol>
      <symbol
         overflow="visible"
         id="symbol3668">
        <path
           style="stroke:none"
           d="m 6.84375,-3.265625 c 0.15625,0 0.34375,0 0.34375,-0.1875 C 7.1875,-3.65625 7,-3.65625 6.859375,-3.65625 h -5.96875 c -0.140625,0 -0.328125,0 -0.328125,0.203125 0,0.1875 0.1875,0.1875 0.328125,0.1875 z m 0.015625,1.9375 c 0.140625,0 0.328125,0 0.328125,-0.203125 0,-0.1875 -0.1875,-0.1875 -0.34375,-0.1875 H 0.890625 c -0.140625,0 -0.328125,0 -0.328125,0.1875 0,0.203125 0.1875,0.203125 0.328125,0.203125 z m 0,0"
           id="path4125" />
      </symbol>
      <symbol
         overflow="visible"
         id="symbol7170">
        <path
           style="stroke:none"
           d="m 4.578125,-3.1875 c 0,-0.796875 -0.046875,-1.59375 -0.390625,-2.328125 -0.453125,-0.96875 -1.28125,-1.125 -1.6875,-1.125 -0.609375,0 -1.328125,0.265625 -1.75,1.1875 -0.3125,0.6875 -0.359375,1.46875 -0.359375,2.265625 0,0.75 0.03125,1.640625 0.453125,2.40625 0.421875,0.796875 1.15625,1 1.640625,1 0.53125,0 1.296875,-0.203125 1.734375,-1.15625 0.3125,-0.6875 0.359375,-1.46875 0.359375,-2.25 z M 2.484375,0 C 2.09375,0 1.5,-0.25 1.328125,-1.203125 1.21875,-1.796875 1.21875,-2.71875 1.21875,-3.3125 c 0,-0.640625 0,-1.296875 0.078125,-1.828125 0.1875,-1.1875 0.9375,-1.28125 1.1875,-1.28125 0.328125,0 0.984375,0.1875 1.171875,1.171875 0.109375,0.5625 0.109375,1.3125 0.109375,1.9375 0,0.75 0,1.421875 -0.109375,2.0625 C 3.5,-0.296875 2.9375,0 2.484375,0 Z m 0,0"
           id="path5301" />
      </symbol>
    </g>
    <g
       id="g433">
      <symbol
         overflow="visible"
         id="symbol2739">
        <path
           style="stroke:none"
           d=""
           id="path801" />
      </symbol>
      <symbol
         overflow="visible"
         id="symbol8986">
        <path
           style="stroke:none"
           d="M 5.390625,-6.078125 C 5.46875,-6.40625 5.5,-6.5 6.046875,-6.5 c 0.15625,0 0.265625,0 0.265625,-0.1875 0,-0.09375 -0.0625,-0.125 -0.140625,-0.125 -0.25,0 -0.859375,0.03125 -1.109375,0.03125 -0.328125,0 -1.140625,-0.03125 -1.46875,-0.03125 -0.078125,0 -0.203125,0 -0.203125,0.203125 C 3.390625,-6.5 3.46875,-6.5 3.734375,-6.5 c 0.21875,0 0.328125,0 0.578125,0.015625 0.234375,0.03125 0.296875,0.0625 0.296875,0.203125 0,0.0625 -0.015625,0.125 -0.03125,0.203125 L 3.421875,-1.5 C 3.1875,-0.53125 2.515625,0 2,0 1.734375,0 1.203125,-0.09375 1.046875,-0.625 c 0.03125,0.015625 0.09375,0.015625 0.125,0.015625 0.390625,0 0.640625,-0.34375 0.640625,-0.640625 0,-0.3125 -0.265625,-0.421875 -0.4375,-0.421875 -0.171875,0 -0.671875,0.125 -0.671875,0.796875 0,0.625 0.53125,1.09375 1.328125,1.09375 0.90625,0 1.953125,-0.65625 2.203125,-1.640625 z m 0,0"
           id="path8012" />
      </symbol>
      <symbol
         overflow="visible"
         id="symbol350">
        <path
           style="stroke:none"
           d=""
           id="path1981" />
      </symbol>
      <symbol
         overflow="visible"
         id="symbol719">
        <path
           style="stroke:none"
           d="m 2.25,-1.734375 c 0.578125,-0.25 0.828125,-0.34375 1,-0.4375 0.140625,-0.046875 0.203125,-0.078125 0.203125,-0.21875 0,-0.109375 -0.09375,-0.21875 -0.21875,-0.21875 -0.046875,0 -0.0625,0 -0.140625,0.0625 L 2.140625,-1.90625 2.25,-2.9375 c 0.015625,-0.125 0,-0.296875 -0.21875,-0.296875 -0.078125,0 -0.21875,0.046875 -0.21875,0.203125 0,0.0625 0.03125,0.265625 0.046875,0.34375 0.015625,0.109375 0.0625,0.625 0.078125,0.78125 L 0.984375,-2.546875 c -0.0625,-0.03125 -0.078125,-0.0625 -0.140625,-0.0625 -0.140625,0 -0.21875,0.109375 -0.21875,0.21875 0,0.140625 0.078125,0.1875 0.140625,0.203125 L 1.8125,-1.734375 c -0.5625,0.25 -0.828125,0.34375 -1,0.421875 -0.125,0.0625 -0.1875,0.09375 -0.1875,0.21875 0,0.125 0.078125,0.21875 0.21875,0.21875 0.046875,0 0.0625,0 0.140625,-0.0625 l 0.953125,-0.625 -0.125,1.109375 c 0,0.15625 0.140625,0.21875 0.21875,0.21875 0.09375,0 0.21875,-0.0625 0.21875,-0.21875 0,-0.0625 -0.03125,-0.265625 -0.03125,-0.328125 -0.015625,-0.125 -0.0625,-0.625 -0.078125,-0.78125 L 2.96875,-1.015625 C 3.15625,-0.875 3.171875,-0.875 3.234375,-0.875 c 0.125,0 0.21875,-0.09375 0.21875,-0.21875 0,-0.140625 -0.09375,-0.171875 -0.15625,-0.203125 z m 0,0"
           id="path4964" />
      </symbol>
      <symbol
         overflow="visible"
         id="symbol9167">
        <path
           style="stroke:none"
           d=""
           id="path4013" />
      </symbol>
      <symbol
         overflow="visible"
         id="symbol5228">
        <path
           style="stroke:none"
           d="m 6.84375,-3.265625 c 0.15625,0 0.34375,0 0.34375,-0.1875 C 7.1875,-3.65625 7,-3.65625 6.859375,-3.65625 h -5.96875 c -0.140625,0 -0.328125,0 -0.328125,0.203125 0,0.1875 0.1875,0.1875 0.328125,0.1875 z m 0.015625,1.9375 c 0.140625,0 0.328125,0 0.328125,-0.203125 0,-0.1875 -0.1875,-0.1875 -0.34375,-0.1875 H 0.890625 c -0.140625,0 -0.328125,0 -0.328125,0.1875 0,0.203125 0.1875,0.203125 0.328125,0.203125 z m 0,0"
           id="path3128" />
      </symbol>
      <symbol
         overflow="visible"
         id="symbol6885">
        <path
           style="stroke:none"
           d=""
           id="path4168" />
      </symbol>
      <symbol
         overflow="visible"
         id="symbol1436">
        <path
           style="stroke:none"
           d="M 5.0625,-2.703125 C 4.53125,-3.375 4.40625,-3.53125 4.09375,-3.78125 c -0.5625,-0.453125 -1.109375,-0.625 -1.625,-0.625 -1.15625,0 -1.921875,1.09375 -1.921875,2.265625 0,1.140625 0.734375,2.25 1.890625,2.25 1.140625,0 1.96875,-0.90625 2.453125,-1.703125 0.546875,0.671875 0.65625,0.828125 0.96875,1.078125 0.5625,0.453125 1.125,0.625 1.625,0.625 1.171875,0 1.921875,-1.09375 1.921875,-2.265625 0,-1.140625 -0.734375,-2.25 -1.875,-2.25 -1.15625,0 -1.984375,0.90625 -2.46875,1.703125 z m 0.265625,0.34375 c 0.40625,-0.71875 1.140625,-1.734375 2.265625,-1.734375 1.0625,0 1.59375,1.046875 1.59375,1.9375 0,0.984375 -0.671875,1.78125 -1.546875,1.78125 C 7.0625,-0.375 6.625,-0.78125 6.40625,-1 6.15625,-1.265625 5.9375,-1.578125 5.328125,-2.359375 Z m -0.6875,0.421875 c -0.40625,0.71875 -1.15625,1.734375 -2.28125,1.734375 -1.046875,0 -1.59375,-1.046875 -1.59375,-1.9375 0,-0.984375 0.671875,-1.78125 1.546875,-1.78125 0.578125,0 1.03125,0.40625 1.234375,0.625 0.25,0.265625 0.484375,0.578125 1.09375,1.359375 z m 0,0"
           id="path6356" />
      </symbol>
    </g>
    <g
       id="g2106">
      <symbol
         overflow="visible"
         id="symbol6690">
        <path
           style="stroke:none"
           d=""
           id="path2524" />
      </symbol>
      <symbol
         overflow="visible"
         id="symbol5784">
        <path
           style="stroke:none"
           d="M 5.390625,-6.078125 C 5.46875,-6.40625 5.5,-6.5 6.046875,-6.5 c 0.15625,0 0.265625,0 0.265625,-0.1875 0,-0.09375 -0.0625,-0.125 -0.140625,-0.125 -0.25,0 -0.859375,0.03125 -1.109375,0.03125 -0.328125,0 -1.140625,-0.03125 -1.46875,-0.03125 -0.078125,0 -0.203125,0 -0.203125,0.203125 C 3.390625,-6.5 3.46875,-6.5 3.734375,-6.5 c 0.21875,0 0.328125,0 0.578125,0.015625 0.234375,0.03125 0.296875,0.0625 0.296875,0.203125 0,0.0625 -0.015625,0.125 -0.03125,0.203125 L 3.421875,-1.5 C 3.1875,-0.53125 2.515625,0 2,0 1.734375,0 1.203125,-0.09375 1.046875,-0.625 c 0.03125,0.015625 0.09375,0.015625 0.125,0.015625 0.390625,0 0.640625,-0.34375 0.640625,-0.640625 0,-0.3125 -0.265625,-0.421875 -0.4375,-0.421875 -0.171875,0 -0.671875,0.125 -0.671875,0.796875 0,0.625 0.53125,1.09375 1.328125,1.09375 0.90625,0 1.953125,-0.65625 2.203125,-1.640625 z m 0,0"
           id="path8461" />
      </symbol>
      <symbol
         overflow="visible"
         id="symbol8058">
        <path
           style="stroke:none"
           d=""
           id="path3337" />
      </symbol>
      <symbol
         overflow="visible"
         id="symbol8416">
        <path
           style="stroke:none"
           d="m 2.25,-1.734375 c 0.578125,-0.25 0.828125,-0.34375 1,-0.4375 0.140625,-0.046875 0.203125,-0.078125 0.203125,-0.21875 0,-0.109375 -0.09375,-0.21875 -0.21875,-0.21875 -0.046875,0 -0.0625,0 -0.140625,0.0625 L 2.140625,-1.90625 2.25,-2.9375 c 0.015625,-0.125 0,-0.296875 -0.21875,-0.296875 -0.078125,0 -0.21875,0.046875 -0.21875,0.203125 0,0.0625 0.03125,0.265625 0.046875,0.34375 0.015625,0.109375 0.0625,0.625 0.078125,0.78125 L 0.984375,-2.546875 c -0.0625,-0.03125 -0.078125,-0.0625 -0.140625,-0.0625 -0.140625,0 -0.21875,0.109375 -0.21875,0.21875 0,0.140625 0.078125,0.1875 0.140625,0.203125 L 1.8125,-1.734375 c -0.5625,0.25 -0.828125,0.34375 -1,0.421875 -0.125,0.0625 -0.1875,0.09375 -0.1875,0.21875 0,0.125 0.078125,0.21875 0.21875,0.21875 0.046875,0 0.0625,0 0.140625,-0.0625 l 0.953125,-0.625 -0.125,1.109375 c 0,0.15625 0.140625,0.21875 0.21875,0.21875 0.09375,0 0.21875,-0.0625 0.21875,-0.21875 0,-0.0625 -0.03125,-0.265625 -0.03125,-0.328125 -0.015625,-0.125 -0.0625,-0.625 -0.078125,-0.78125 L 2.96875,-1.015625 C 3.15625,-0.875 3.171875,-0.875 3.234375,-0.875 c 0.125,0 0.21875,-0.09375 0.21875,-0.21875 0,-0.140625 -0.09375,-0.171875 -0.15625,-0.203125 z m 0,0"
           id="path2889" />
      </symbol>
      <symbol
         overflow="visible"
         id="symbol6426">
        <path
           style="stroke:none"
           d=""
           id="path27" />
      </symbol>
      <symbol
         overflow="visible"
         id="symbol3353">
        <path
           style="stroke:none"
           d="m 6.84375,-3.265625 c 0.15625,0 0.34375,0 0.34375,-0.1875 C 7.1875,-3.65625 7,-3.65625 6.859375,-3.65625 h -5.96875 c -0.140625,0 -0.328125,0 -0.328125,0.203125 0,0.1875 0.1875,0.1875 0.328125,0.1875 z m 0.015625,1.9375 c 0.140625,0 0.328125,0 0.328125,-0.203125 0,-0.1875 -0.1875,-0.1875 -0.34375,-0.1875 H 0.890625 c -0.140625,0 -0.328125,0 -0.328125,0.1875 0,0.203125 0.1875,0.203125 0.328125,0.203125 z m 0,0"
           id="path6975" />
      </symbol>
      <symbol
         overflow="visible"
         id="symbol9917">
        <path
           style="stroke:none"
           d=""
           id="path3031" />
      </symbol>
      <symbol
         overflow="visible"
         id="symbol7069">
        <path
           style="stroke:none"
           d="M 3.515625,-1.265625 H 3.28125 c -0.015625,0.15625 -0.09375,0.5625 -0.1875,0.625 C 3.046875,-0.59375 2.515625,-0.59375 2.40625,-0.59375 H 1.125 c 0.734375,-0.640625 0.984375,-0.84375 1.390625,-1.171875 0.515625,-0.40625 1,-0.84375 1,-1.5 0,-0.84375 -0.734375,-1.359375 -1.625,-1.359375 -0.859375,0 -1.453125,0.609375 -1.453125,1.25 0,0.34375 0.296875,0.390625 0.375,0.390625 0.15625,0 0.359375,-0.125 0.359375,-0.375 0,-0.125 -0.046875,-0.375 -0.40625,-0.375 C 0.984375,-4.21875 1.453125,-4.375 1.78125,-4.375 c 0.703125,0 1.0625,0.546875 1.0625,1.109375 0,0.609375 -0.4375,1.078125 -0.65625,1.328125 L 0.515625,-0.265625 C 0.4375,-0.203125 0.4375,-0.1875 0.4375,0 h 2.875 z m 0,0"
           id="path7068" />
      </symbol>
      <symbol
         overflow="visible"
         id="symbol3696">
        <path
           style="stroke:none"
           d=""
           id="path3230" />
      </symbol>
      <symbol
         overflow="visible"
         id="symbol7846">
        <path
           style="stroke:none"
           d="M 3.984375,-2.796875 C 3.953125,-2.859375 3.9375,-2.875 3.9375,-2.890625 c 0,-0.015625 0.015625,-0.015625 0.171875,-0.125 l 0.703125,-0.5 c 0.921875,-0.640625 1.359375,-0.953125 1.84375,-1 0.078125,0 0.171875,0 0.171875,-0.140625 0,-0.0625 -0.046875,-0.09375 -0.09375,-0.09375 -0.15625,0 -0.328125,0.015625 -0.484375,0.015625 -0.1875,0 -0.65625,-0.03125 -0.84375,-0.03125 -0.046875,0 -0.140625,0 -0.140625,0.15625 0,0.015625 0,0.09375 0.09375,0.09375 0.09375,0.015625 0.1875,0.03125 0.1875,0.109375 0,0.125 -0.21875,0.28125 -0.3125,0.34375 L 2.328125,-2.015625 2.875,-4.21875 c 0.0625,-0.234375 0.078125,-0.296875 0.609375,-0.296875 0.125,0 0.21875,0 0.21875,-0.140625 0,-0.0625 -0.046875,-0.109375 -0.109375,-0.109375 -0.203125,0 -0.71875,0.03125 -0.921875,0.03125 -0.109375,0 -0.359375,0 -0.484375,0 C 2.0625,-4.75 1.890625,-4.765625 1.75,-4.765625 c -0.03125,0 -0.140625,0 -0.140625,0.15625 0,0.09375 0.078125,0.09375 0.234375,0.09375 0.109375,0 0.140625,0 0.265625,0.015625 0.140625,0.015625 0.15625,0.03125 0.15625,0.109375 0,0 0,0.046875 -0.03125,0.140625 l -0.9375,3.703125 C 1.25,-0.3125 1.234375,-0.25 0.6875,-0.25 c -0.125,0 -0.203125,0 -0.203125,0.15625 0,0 0,0.09375 0.109375,0.09375 0.203125,0 0.703125,-0.03125 0.90625,-0.03125 0.109375,0 0.359375,0 0.484375,0.015625 C 2.125,-0.015625 2.296875,0 2.421875,0 2.46875,0 2.578125,0 2.578125,-0.15625 2.578125,-0.25 2.484375,-0.25 2.34375,-0.25 c 0,0 -0.140625,0 -0.265625,-0.015625 C 1.921875,-0.28125 1.921875,-0.296875 1.921875,-0.375 1.921875,-0.421875 2,-0.6875 2.25,-1.703125 l 1.15625,-0.8125 1.015625,1.953125 c 0.046875,0.09375 0.046875,0.09375 0.046875,0.125 0,0.171875 -0.203125,0.1875 -0.328125,0.1875 -0.078125,0 -0.171875,0 -0.171875,0.15625 0,0 0,0.09375 0.109375,0.09375 C 4.28125,0 4.78125,-0.03125 4.96875,-0.03125 5.1875,-0.03125 5.46875,0 5.65625,0 5.75,0 5.796875,-0.046875 5.796875,-0.140625 5.796875,-0.25 5.703125,-0.25 5.640625,-0.25 c -0.125,0 -0.34375,-0.015625 -0.46875,-0.234375 z m 0,0"
           id="path5599" />
      </symbol>
      <symbol
         overflow="visible"
         id="symbol8686">
        <path
           style="stroke:none"
           d="M 0.375,1.125 C 0.34375,1.21875 0.34375,1.265625 0.34375,1.265625 c 0,0.15625 0.125,0.21875 0.234375,0.21875 0.265625,0 0.3125,-0.203125 0.359375,-0.421875 0.09375,-0.359375 0.296875,-1.15625 0.359375,-1.421875 0.0625,0.09375 0.296875,0.421875 0.765625,0.421875 0.90625,0 1.84375,-0.9375 1.84375,-1.953125 0,-0.75 -0.484375,-1.1875 -1.109375,-1.1875 -0.671875,0 -1.515625,0.609375 -1.765625,1.59375 z m 1.6875,-1.25 c -0.515625,0 -0.671875,-0.515625 -0.671875,-0.609375 0,-0.015625 0.046875,-0.171875 0.0625,-0.25 C 1.671875,-1.84375 1.703125,-2 1.90625,-2.3125 c 0.25,-0.359375 0.609375,-0.5625 0.875,-0.5625 0.296875,0 0.5625,0.203125 0.5625,0.703125 0,0.3125 -0.1875,1.09375 -0.390625,1.4375 C 2.625,-0.234375 2.28125,-0.125 2.0625,-0.125 Z m 0,0"
           id="path5037" />
      </symbol>
    </g>
  </defs>
  <g
     inkscape:label="Layer 1"
     inkscape:groupmode="layer"
     id="layer1"
     transform="translate(-18.42066,-94.288784)">
    <g
       id="g13698">
      <path
         style="fill:none;stroke:#000000;stroke-width:1;stroke-linecap:butt;stroke-linejoin:miter;stroke-miterlimit:4;stroke-dasharray:none;stroke-opacity:1"
         d="M 21.949081,116.22144 H 106.19971"
         id="path10959"
         inkscape:path-effect="#path-effect10961"
         inkscape:original-d="m 21.949081,116.22144 c 28.083666,1.1e-4 56.16721,1.1e-4 84.250629,0" />
      <path
         style="fill:none;stroke:#000000;stroke-width:1;stroke-linecap:butt;stroke-linejoin:miter;stroke-miterlimit:4;stroke-dasharray:none;stroke-opacity:1"
         d="m 106.19971,116.22144 h 84.25062"
         id="path10959-7"
         inkscape:path-effect="#path-effect12262"
         inkscape:original-d="m 106.19971,116.22144 c 28.08366,1.1e-4 56.16721,1.1e-4 84.25062,0" />
    </g>
    <path
       style="fill:none;stroke:#000000;stroke-width:1;stroke-linecap:butt;stroke-linejoin:miter;stroke-miterlimit:4;stroke-dasharray:2, 1;stroke-dashoffset:0;stroke-opacity:1"
       d="m 21.949081,104.5928 v 23.25727"
       id="path12094"
       inkscape:path-effect="#path-effect12096"
       inkscape:original-d="m 21.949081,104.5928 c 2.65e-4,7.75269 2.65e-4,15.50511 0,23.25727" />
    <path
       style="fill:none;stroke:#000000;stroke-width:1;stroke-linecap:butt;stroke-linejoin:miter;stroke-miterlimit:4;stroke-dasharray:2, 1;stroke-dashoffset:0;stroke-opacity:1"
       d="m 190.45033,104.59281 v 23.25726"
       id="path12094-3"
       inkscape:path-effect="#path-effect12204"
       inkscape:original-d="m 190.45033,104.59281 c 2.6e-4,7.75269 2.6e-4,15.50511 0,23.25726" />
    <path
       style="fill:none;stroke:#000000;stroke-width:1;stroke-linecap:butt;stroke-linejoin:miter;stroke-miterlimit:4;stroke-dasharray:2, 1;stroke-dashoffset:0;stroke-opacity:1"
       d="m 106.19971,104.5928 v 23.25727"
       id="path12094-3-1"
       inkscape:path-effect="#path-effect12233"
       inkscape:original-d="m 106.19971,104.5928 c 2.6e-4,7.75269 2.6e-4,15.50511 0,23.25727" />
    <path
       style="fill:none;stroke:#000000;stroke-width:0.5;stroke-linecap:butt;stroke-linejoin:miter;stroke-miterlimit:4;stroke-dasharray:none;stroke-opacity:1;marker-end:url(#TriangleOutL)"
       d="m 21.949081,116.22144 h 4.414492"
       id="path12298"
       inkscape:path-effect="#path-effect12300"
       inkscape:original-d="m 21.949081,116.22144 c 1.471762,2.7e-4 2.943258,2.7e-4 4.414492,0" />
    <path
       style="fill:none;stroke:#000000;stroke-width:0.5;stroke-linecap:butt;stroke-linejoin:miter;stroke-miterlimit:4;stroke-dasharray:none;stroke-opacity:1;marker-end:url(#TriangleOutL-5)"
       d="m 32.532415,116.22144 h 4.414492"
       id="path12298-6"
       inkscape:path-effect="#path-effect12686"
       inkscape:original-d="m 32.532415,116.22144 c 1.471762,2.7e-4 2.943258,2.7e-4 4.414492,0" />
    <path
       style="fill:none;stroke:#000000;stroke-width:0.5;stroke-linecap:butt;stroke-linejoin:miter;stroke-miterlimit:4;stroke-dasharray:none;stroke-opacity:1;marker-end:url(#TriangleOutL-2)"
       d="m 85.910217,116.22144 h 4.414492"
       id="path12298-5"
       inkscape:path-effect="#path-effect12746"
       inkscape:original-d="m 85.910217,116.22144 c 1.471762,2.7e-4 2.943258,2.7e-4 4.414492,0" />
    <path
       style="fill:none;stroke:#000000;stroke-width:0.5;stroke-linecap:butt;stroke-linejoin:miter;stroke-miterlimit:4;stroke-dasharray:none;stroke-opacity:1;marker-end:url(#TriangleOutL-5-7)"
       d="m 96.493553,116.22144 h 4.414487"
       id="path12298-6-7"
       inkscape:path-effect="#path-effect12750"
       inkscape:original-d="m 96.493553,116.22144 c 1.47176,2.7e-4 2.94326,2.7e-4 4.414487,0" />
    <path
       style="fill:none;stroke:#000000;stroke-width:0.5;stroke-linecap:butt;stroke-linejoin:miter;stroke-miterlimit:4;stroke-dasharray:none;stroke-opacity:1;marker-end:url(#TriangleOutL-2-8)"
       d="m 126.48921,116.22144 h -4.4145"
       id="path12298-5-9"
       inkscape:path-effect="#path-effect12815"
       inkscape:original-d="m 126.48921,116.22144 c -1.47176,2.7e-4 -2.94326,2.7e-4 -4.4145,0" />
    <path
       style="fill:none;stroke:#000000;stroke-width:0.5;stroke-linecap:butt;stroke-linejoin:miter;stroke-miterlimit:4;stroke-dasharray:none;stroke-opacity:1;marker-end:url(#TriangleOutL-5-7-4)"
       d="m 115.90587,116.22144 h -4.41449"
       id="path12298-6-7-7"
       inkscape:path-effect="#path-effect12819"
       inkscape:original-d="m 115.90587,116.22144 c -1.47176,2.7e-4 -2.94326,2.7e-4 -4.41449,0" />
    <path
       style="fill:none;stroke:#000000;stroke-width:0.5;stroke-linecap:butt;stroke-linejoin:miter;stroke-miterlimit:4;stroke-dasharray:none;stroke-opacity:1;marker-end:url(#TriangleOutL-2-8-5)"
       d="m 190.45033,116.22144 h -4.4145"
       id="path12298-5-9-3"
       inkscape:path-effect="#path-effect12884"
       inkscape:original-d="m 190.45033,116.22144 c -1.47176,2.7e-4 -2.94326,2.7e-4 -4.4145,0" />
    <path
       style="fill:none;stroke:#000000;stroke-width:0.5;stroke-linecap:butt;stroke-linejoin:miter;stroke-miterlimit:4;stroke-dasharray:none;stroke-opacity:1;marker-end:url(#TriangleOutL-5-7-4-8)"
       d="M 179.86699,116.22144 H 175.4525"
       id="path12298-6-7-7-1"
       inkscape:path-effect="#path-effect12888"
       inkscape:original-d="m 179.86699,116.22144 c -1.47176,2.7e-4 -2.94326,2.7e-4 -4.41449,0" />
    <g
       inkscape:label=""
       transform="translate(-74.207468,21.698753)"
       id="g13081">
      <g
         id="g6249">
        <g
           style="fill:#000000;fill-opacity:1"
           id="g3016">
          <use
             xlink:href="#symbol5024"
             x="91.925003"
             y="81.962997"
             id="use4892"
             width="100%"
             height="100%" />
        </g>
        <g
           style="fill:#000000;fill-opacity:1"
           id="g336">
          <use
             xlink:href="#symbol590"
             x="98.407997"
             y="78.348"
             id="use6216"
             width="100%"
             height="100%" />
        </g>
        <g
           style="fill:#000000;fill-opacity:1"
           id="g398">
          <use
             xlink:href="#symbol3668"
             x="105.755"
             y="81.962997"
             id="use2644"
             width="100%"
             height="100%" />
        </g>
        <g
           style="fill:#000000;fill-opacity:1"
           id="g8353">
          <use
             xlink:href="#symbol7170"
             x="116.27351"
             y="81.962997"
             id="use8729"
             width="100%"
             height="100%" />
        </g>
      </g>
    </g>
    <g
       inkscape:label=""
       transform="translate(68.507054,21.698753)"
       id="g13296">
      <g
         id="g1143">
        <g
           style="fill:#000000;fill-opacity:1"
           id="g100">
          <use
             xlink:href="#symbol8986"
             x="91.925003"
             y="81.962997"
             id="use1280"
             width="100%"
             height="100%" />
        </g>
        <g
           style="fill:#000000;fill-opacity:1"
           id="g3861">
          <use
             xlink:href="#symbol719"
             x="98.407997"
             y="78.348"
             id="use4271"
             width="100%"
             height="100%" />
        </g>
        <g
           style="fill:#000000;fill-opacity:1"
           id="g1295">
          <use
             xlink:href="#symbol5228"
             x="105.755"
             y="81.962997"
             id="use7057"
             width="100%"
             height="100%" />
        </g>
        <g
           style="fill:#000000;fill-opacity:1"
           id="g5209">
          <use
             xlink:href="#symbol1436"
             x="116.271"
             y="81.962997"
             id="use2469"
             width="100%"
             height="100%" />
        </g>
      </g>
    </g>
    <g
       inkscape:label=""
       transform="translate(-3.770125,20.873783)"
       id="g13602">
      <g
         id="g4617">
        <g
           style="fill:#000000;fill-opacity:1"
           id="g5243">
          <use
             xlink:href="#symbol5784"
             x="91.925003"
             y="81.962997"
             id="use8283"
             width="100%"
             height="100%" />
        </g>
        <g
           style="fill:#000000;fill-opacity:1"
           id="g4753">
          <use
             xlink:href="#symbol8416"
             x="98.407997"
             y="78.348"
             id="use4629"
             width="100%"
             height="100%" />
        </g>
        <g
           style="fill:#000000;fill-opacity:1"
           id="g5865">
          <use
             xlink:href="#symbol3353"
             x="105.755"
             y="81.962997"
             id="use1357"
             width="100%"
             height="100%" />
        </g>
        <g
           style="fill:#000000;fill-opacity:1"
           id="g9769">
          <use
             xlink:href="#symbol7069"
             x="121.139"
             y="78.040001"
             id="use4338"
             width="100%"
             height="100%" />
        </g>
        <path
           style="fill:none;stroke:#000000;stroke-width:0.398;stroke-linecap:butt;stroke-linejoin:miter;stroke-miterlimit:10;stroke-opacity:1"
           d="m 0.00175,-6.5625e-4 h 11.3125"
           transform="matrix(1,0,0,-1,117.467,79.472)"
           id="path5048" />
        <g
           style="fill:#000000;fill-opacity:1"
           id="g1498">
          <use
             xlink:href="#symbol7846"
             x="117.467"
             y="85.398003"
             id="use2230"
             width="100%"
             height="100%" />
        </g>
        <g
           style="fill:#000000;fill-opacity:1"
           id="g2681">
          <use
             xlink:href="#symbol8686"
             x="124.64931"
             y="85.398003"
             id="use306"
             width="100%"
             height="100%" />
        </g>
      </g>
    </g>
  </g>
</svg>
